<svg xmlns="http://www.w3.org/2000/svg" viewBox="0 0 32 32">
  <defs>
    <linearGradient id="pv-id-top" x1="0" y1="0" x2="1" y2="1">
      <stop offset="0%" stop-color="#ffd040"/>
      <stop offset="100%" stop-color="#376fa0"/>
    </linearGradient>
    <linearGradient id="pv-id-left" x1="0" y1="0" x2="0" y2="1">
      <stop offset="0%" stop-color="#376fa0"/>
      <stop offset="100%" stop-color="#1a4a70"/>
    </linearGradient>
    <linearGradient id="pv-id-right" x1="0" y1="0" x2="0" y2="1">
      <stop offset="0%" stop-color="#ffd040"/>
      <stop offset="100%" stop-color="#d4442a"/>
    </linearGradient>
  </defs>
  <polygon points="16,2 28,8 16,14 4,8" fill="url(#pv-id-top)"/>
  <polygon points="4,8 16,14 16,28 4,22" fill="url(#pv-id-left)"/>
  <polygon points="28,8 16,14 16,28 28,22" fill="url(#pv-id-right)"/>
  <g stroke="rgba(255,255,255,0.45)" stroke-width="0.4" fill="none">
    <polygon points="16,2 28,8 16,14 4,8"/>
    <line x1="16" y1="14" x2="16" y2="28"/>
    <line x1="4" y1="8" x2="4" y2="22"/>
    <line x1="28" y1="8" x2="28" y2="22"/>
    <line x1="4" y1="22" x2="16" y2="28"/>
    <line x1="28" y1="22" x2="16" y2="28"/>
    <line x1="12" y1="4" x2="24" y2="10"/>
    <line x1="8" y1="6" x2="20" y2="12"/>
    <line x1="20" y1="4" x2="8" y2="10"/>
    <line x1="24" y1="6" x2="12" y2="12"/>
    <line x1="4" y1="12.67" x2="16" y2="18.67"/>
    <line x1="4" y1="17.33" x2="16" y2="23.33"/>
    <line x1="8" y1="10" x2="8" y2="24"/>
    <line x1="12" y1="12" x2="12" y2="26"/>
    <line x1="28" y1="12.67" x2="16" y2="18.67"/>
    <line x1="28" y1="17.33" x2="16" y2="23.33"/>
    <line x1="24" y1="10" x2="24" y2="24"/>
    <line x1="20" y1="12" x2="20" y2="26"/>
  </g>
</svg>
