<svg xmlns="http://www.w3.org/2000/svg" viewBox="0 0 32 32">
  <defs>
    <linearGradient id="pv-mb-top1" x1="0" y1="0" x2="1" y2="1">
      <stop offset="0%" stop-color="#ffd040"/>
      <stop offset="100%" stop-color="#376fa0"/>
    </linearGradient>
    <linearGradient id="pv-mb-top2" x1="0" y1="0" x2="1" y2="1">
      <stop offset="0%" stop-color="#376fa0"/>
      <stop offset="100%" stop-color="#ffd040"/>
    </linearGradient>
  </defs>
  <polygon points="13,2 22,6 13,10 4,6" fill="url(#pv-mb-top1)" opacity="0.9"/>
  <polygon points="4,6 13,10 13,17 4,13" fill="#1a4a70" opacity="0.9"/>
  <polygon points="22,6 13,10 13,17 22,13" fill="#376fa0" opacity="0.85"/>
  <g stroke="rgba(255,255,255,0.4)" stroke-width="0.35" fill="none">
    <polygon points="13,2 22,6 13,10 4,6"/>
    <line x1="13" y1="10" x2="13" y2="17"/>
    <line x1="4" y1="6" x2="4" y2="13"/>
    <line x1="22" y1="6" x2="22" y2="13"/>
    <line x1="4" y1="13" x2="13" y2="17"/>
    <line x1="22" y1="13" x2="13" y2="17"/>
  </g>
  <polygon points="17,7 26,11 17,15 8,11" fill="url(#pv-mb-top2)" opacity="0.9"/>
  <polygon points="8,11 17,15 17,22 8,18" fill="#1a4a70" opacity="0.85"/>
  <polygon points="26,11 17,15 17,22 26,18" fill="#376fa0" opacity="0.85"/>
  <g stroke="rgba(255,255,255,0.4)" stroke-width="0.35" fill="none">
    <polygon points="17,7 26,11 17,15 8,11"/>
    <line x1="17" y1="15" x2="17" y2="22"/>
    <line x1="8" y1="11" x2="8" y2="18"/>
    <line x1="26" y1="11" x2="26" y2="18"/>
    <line x1="8" y1="18" x2="17" y2="22"/>
    <line x1="26" y1="18" x2="17" y2="22"/>
  </g>
  <polygon points="19,13 28,17 19,21 10,17" fill="url(#pv-mb-top1)" opacity="0.95"/>
  <polygon points="10,17 19,21 19,28 10,24" fill="#1a4a70" opacity="0.9"/>
  <polygon points="28,17 19,21 19,28 28,24" fill="#376fa0" opacity="0.9"/>
  <g stroke="rgba(255,255,255,0.45)" stroke-width="0.35" fill="none">
    <polygon points="19,13 28,17 19,21 10,17"/>
    <line x1="19" y1="21" x2="19" y2="28"/>
    <line x1="10" y1="17" x2="10" y2="24"/>
    <line x1="28" y1="17" x2="28" y2="24"/>
    <line x1="10" y1="24" x2="19" y2="28"/>
    <line x1="28" y1="24" x2="19" y2="28"/>
  </g>
</svg>
