<svg xmlns="http://www.w3.org/2000/svg" viewBox="0 0 32 32">
  <defs>
    <linearGradient id="pv-pd-g1" x1="0" y1="0" x2="1" y2="1">
      <stop offset="0%" stop-color="#ffd040"/>
      <stop offset="100%" stop-color="#376fa0"/>
    </linearGradient>
  </defs>
  <polygon points="6,6 22,4 14,16" fill="#376fa0" opacity="0.9"/>
  <polygon points="22,4 28,16 14,16" fill="url(#pv-pd-g1)" opacity="0.85"/>
  <polygon points="6,6 14,16 4,26" fill="#1a4a70" opacity="0.85"/>
  <polygon points="14,16 28,16 20,28" fill="#376fa0" opacity="0.8"/>
  <polygon points="4,26 14,16 20,28" fill="#ffd040" opacity="0.8"/>
  <g stroke="rgba(255,255,255,0.65)" stroke-width="0.6" fill="none">
    <line x1="6" y1="6" x2="22" y2="4"/>
    <line x1="22" y1="4" x2="28" y2="16"/>
    <line x1="28" y1="16" x2="20" y2="28"/>
    <line x1="20" y1="28" x2="4" y2="26"/>
    <line x1="4" y1="26" x2="6" y2="6"/>
    <line x1="6" y1="6" x2="14" y2="16"/>
    <line x1="22" y1="4" x2="14" y2="16"/>
    <line x1="28" y1="16" x2="14" y2="16"/>
    <line x1="14" y1="16" x2="4" y2="26"/>
    <line x1="14" y1="16" x2="20" y2="28"/>
  </g>
  <g fill="rgba(255,255,255,0.85)">
    <circle cx="6" cy="6" r="1.3"/>
    <circle cx="22" cy="4" r="1.3"/>
    <circle cx="28" cy="16" r="1.3"/>
    <circle cx="14" cy="16" r="1.3"/>
    <circle cx="20" cy="28" r="1.3"/>
    <circle cx="4" cy="26" r="1.3"/>
  </g>
</svg>
