<svg xmlns="http://www.w3.org/2000/svg" viewBox="0 0 32 32">
  <defs>
    <linearGradient id="pv-sg-top" x1="0" y1="0" x2="1" y2="1">
      <stop offset="0%" stop-color="#ffd040"/>
      <stop offset="100%" stop-color="#376fa0"/>
    </linearGradient>
    <linearGradient id="pv-sg-left" x1="0" y1="0" x2="0" y2="1">
      <stop offset="0%" stop-color="#376fa0"/>
      <stop offset="100%" stop-color="#1a4a70"/>
    </linearGradient>
    <linearGradient id="pv-sg-right" x1="0" y1="0" x2="0" y2="1">
      <stop offset="0%" stop-color="#ffd040"/>
      <stop offset="100%" stop-color="#376fa0"/>
    </linearGradient>
  </defs>
  <polygon points="16,2 28,8 16,14 4,8" fill="url(#pv-sg-top)"/>
  <polygon points="4,8 16,14 16,28 4,22" fill="url(#pv-sg-left)"/>
  <polygon points="28,8 16,14 16,28 28,22" fill="url(#pv-sg-right)"/>
  <g stroke="rgba(255,255,255,0.45)" stroke-width="0.4" fill="none">
    <polygon points="16,2 28,8 16,14 4,8"/>
    <line x1="16" y1="14" x2="16" y2="28"/>
    <line x1="4" y1="8" x2="4" y2="22"/>
    <line x1="28" y1="8" x2="28" y2="22"/>
    <line x1="4" y1="22" x2="16" y2="28"/>
    <line x1="28" y1="22" x2="16" y2="28"/>
    <path d="M12,4 Q16,5.5 18,6 Q21,7 24,10"/>
    <path d="M8,6 Q12,8.5 14,9 Q17,10 20,12"/>
    <path d="M20,4 Q17,6 15,7 Q11,8 8,10"/>
    <path d="M24,6 Q21,8.5 18,10 Q15,11 12,12"/>
    <path d="M4,12.67 Q8,13 10,14.5 Q13,16 16,18.67"/>
    <path d="M4,17.33 Q8,17 10,18.5 Q13,20.5 16,23.33"/>
    <path d="M8,10 Q7.5,14 8.5,18 Q8,21 8,24"/>
    <path d="M12,12 Q11.5,16 12.5,20 Q12,23 12,26"/>
    <path d="M28,12.67 Q24,13.5 22,14 Q19,16 16,18.67"/>
    <path d="M28,17.33 Q24,17 22,18.5 Q19,20.5 16,23.33"/>
    <path d="M24,10 Q24.5,14 23.5,18 Q24,21 24,24"/>
    <path d="M20,12 Q20.5,16 19.5,20 Q20,23 20,26"/>
  </g>
</svg>
