<svg xmlns="http://www.w3.org/2000/svg" viewBox="0 0 32 32">
  <defs>
    <linearGradient id="pv-ug-g1" x1="0" y1="0" x2="1" y2="1">
      <stop offset="0%" stop-color="#ffd040"/>
      <stop offset="100%" stop-color="#376fa0"/>
    </linearGradient>
  </defs>
  <polygon points="3,10 8,5 14,7 13,13 6,14" fill="#376fa0" opacity="0.9"/>
  <polygon points="14,7 22,4 20,12" fill="url(#pv-ug-g1)" opacity="0.85"/>
  <polygon points="22,4 29,9 27,17 20,12" fill="#1a4a70" opacity="0.85"/>
  <polygon points="13,13 20,12 16,20" fill="#ffd040" opacity="0.8"/>
  <polygon points="6,14 13,13 16,20 10,24 4,20" fill="#376fa0" opacity="0.8"/>
  <polygon points="16,20 10,24 18,28" fill="#1a4a70" opacity="0.85"/>
  <polygon points="20,12 27,17 26,25 18,28 16,20" fill="url(#pv-ug-g1)" opacity="0.8"/>
  <g stroke="rgba(255,255,255,0.6)" stroke-width="0.5" fill="none">
    <polygon points="3,10 8,5 14,7 13,13 6,14"/>
    <polygon points="14,7 22,4 20,12"/>
    <polygon points="22,4 29,9 27,17 20,12"/>
    <line x1="13" y1="13" x2="20" y2="12"/>
    <line x1="13" y1="13" x2="16" y2="20"/>
    <line x1="20" y1="12" x2="16" y2="20"/>
    <polygon points="6,14 13,13 16,20 10,24 4,20"/>
    <line x1="16" y1="20" x2="10" y2="24"/>
    <line x1="10" y1="24" x2="18" y2="28"/>
    <line x1="16" y1="20" x2="18" y2="28"/>
    <polygon points="20,12 27,17 26,25 18,28 16,20"/>
  </g>
  <g fill="rgba(255,255,255,0.8)">
    <circle cx="3" cy="10" r="0.9"/>
    <circle cx="8" cy="5" r="0.9"/>
    <circle cx="14" cy="7" r="0.9"/>
    <circle cx="22" cy="4" r="0.9"/>
    <circle cx="29" cy="9" r="0.9"/>
    <circle cx="13" cy="13" r="0.9"/>
    <circle cx="20" cy="12" r="0.9"/>
    <circle cx="6" cy="14" r="0.9"/>
    <circle cx="27" cy="17" r="0.9"/>
    <circle cx="16" cy="20" r="0.9"/>
    <circle cx="4" cy="20" r="0.9"/>
    <circle cx="10" cy="24" r="0.9"/>
    <circle cx="26" cy="25" r="0.9"/>
    <circle cx="18" cy="28" r="0.9"/>
  </g>
</svg>
